HIERARCHY
ROOT Hips
{
	OFFSET 0.000000 0.000000 0.000000
	CHANNELS 6 Xposition Yposition Zposition Zrotation Yrotation Xrotation 
	JOINT LHipJoint
	{
		OFFSET 0.000000 0.000000 0.000000
		CHANNELS 3 Zrotation Yrotation Xrotation
		JOINT LeftUpLeg
		{
			OFFSET 1.363060 -1.794630 0.839290
			CHANNELS 3 Zrotation Yrotation Xrotation
			JOINT LeftLeg
			{
				OFFSET 2.448110 -6.726130 0.000000
				CHANNELS 3 Zrotation Yrotation Xrotation
				JOINT LeftFoot
				{
					OFFSET 2.562200 -7.039590 0.000000
					CHANNELS 3 Zrotation Yrotation Xrotation
					JOINT LeftToeBase
					{
						OFFSET 0.157640 -0.433110 2.322550
						CHANNELS 3 Zrotation Yrotation Xrotation
						End Site
						{
							OFFSET 0.000000 0.000000 0.000000
						}
					}
				}
			}
		}
	}
	JOINT RHipJoint
	{
		OFFSET 0.000000 0.000000 0.000000
		CHANNELS 3 Zrotation Yrotation Xrotation
		JOINT RightUpLeg
		{
			OFFSET -1.305520 -1.794630 0.839290
			CHANNELS 3 Zrotation Yrotation Xrotation
			JOINT RightLeg
			{
				OFFSET -2.542530 -6.985550 0.000000
				CHANNELS 3 Zrotation Yrotation Xrotation
				JOINT RightFoot
				{
					OFFSET -2.568260 -7.056230 0.000000
					CHANNELS 3 Zrotation Yrotation Xrotation
					JOINT RightToeBase
					{
						OFFSET -0.164730 -0.452590 2.363150
						CHANNELS 3 Zrotation Yrotation Xrotation
						End Site
						{
							OFFSET 0.000000 0.000000 0.000000
						}
					}
				}
			}
		}
	}
	JOINT LowerBack
	{
		OFFSET 0.000000 0.000000 0.000000
		CHANNELS 3 Zrotation Yrotation Xrotation
		JOINT Spine
		{
			OFFSET 0.028270 2.035590 -0.193380
			CHANNELS 3 Zrotation Yrotation Xrotation
			JOINT Spine1
			{
				OFFSET 0.056720 2.048850 -0.042750
				CHANNELS 3 Zrotation Yrotation Xrotation
				JOINT Neck
				{
					OFFSET 0.000000 0.000000 0.000000
					CHANNELS 3 Zrotation Yrotation Xrotation
					JOINT Neck1
					{
						OFFSET -0.054170 1.746240 0.172020
						CHANNELS 3 Zrotation Yrotation Xrotation
						JOINT Head
						{
							OFFSET 0.104070 1.761360 -0.123970
							CHANNELS 3 Zrotation Yrotation Xrotation
							End Site
							{
								OFFSET 0.000000 0.000000 0.000000
							}
						}
					}
				}
				JOINT LeftShoulder
				{
					OFFSET 0.000000 0.000000 0.000000
					CHANNELS 3 Zrotation Yrotation Xrotation
					JOINT LeftArm
					{
						OFFSET 3.362410 1.200890 -0.311210
						CHANNELS 3 Zrotation Yrotation Xrotation
						JOINT LeftForeArm
						{
							OFFSET 4.983000 -0.000000 -0.000000
							CHANNELS 3 Zrotation Yrotation Xrotation
							JOINT LeftHand
							{
								OFFSET 3.483560 -0.000000 -0.000000
								CHANNELS 3 Zrotation Yrotation Xrotation
								JOINT LeftFingerBase
								{
									OFFSET 0.000000 0.000000 0.000000
									CHANNELS 3 Zrotation Yrotation Xrotation
									JOINT LeftHandIndex1
									{
										OFFSET 0.715260 -0.000000 -0.000000
										CHANNELS 3 Zrotation Yrotation Xrotation
										End Site
										{
											OFFSET 0.000000 0.000000 0.000000
										}
									}
								}
								JOINT LThumb
								{
									OFFSET 0.000000 0.000000 0.000000
									CHANNELS 3 Zrotation Yrotation Xrotation
									End Site
									{
										OFFSET 0.000000 0.000000 0.000000
									}
								}
							}
						}
					}
				}
				JOINT RightShoulder
				{
					OFFSET 0.000000 0.000000 0.000000
					CHANNELS 3 Zrotation Yrotation Xrotation
					JOINT RightArm
					{
						OFFSET -3.136600 1.374050 -0.404650
						CHANNELS 3 Zrotation Yrotation Xrotation
						JOINT RightForeArm
						{
							OFFSET -5.241900 -0.000000 -0.000000
							CHANNELS 3 Zrotation Yrotation Xrotation
							JOINT RightHand
							{
								OFFSET -3.444170 -0.000000 -0.000000
								CHANNELS 3 Zrotation Yrotation Xrotation
								JOINT RightFingerBase
								{
									OFFSET 0.000000 0.000000 0.000000
									CHANNELS 3 Zrotation Yrotation Xrotation
									JOINT RightHandIndex1
									{
										OFFSET -0.622530 -0.000000 -0.000000
										CHANNELS 3 Zrotation Yrotation Xrotation
										End Site
										{
											OFFSET 0.000000 0.000000 0.000000
										}
									}
								}
								JOINT RThumb
								{
									OFFSET 0.000000 0.000000 0.000000
									CHANNELS 3 Zrotation Yrotation Xrotation
									End Site
									{
										OFFSET 0.000000 0.000000 0.000000
									}
								}
							}
						}
					}
				}
			}
		}
	}
}
MOTION
Frames: 10
Frame Time: 0.008333
-1.239243 17.048376 5.077942 1.766756 -6.410210 9.003617 10.758041 2.506417 -3.384711 -23.736421 -1.332557 -0.722618 -1.858134 0.772376 3.430879 -0.620487 7.990634 -5.782396 0.004400 -0.429400 -1.179900 -13.607040 -2.709678 -2.642159 23.966871 14.191227 -12.922041 -0.268177 -10.455136 28.090582 0.893150 -13.879841 -18.199581 -0.006900 0.534700 -1.469200 1.749379 -2.648982 1.887832 1.789759 -3.764273 -5.213616 -1.983439 -1.855052 -5.184356 8.384173 14.341972 -8.112719 1.264996 18.676316 12.288522 -6.363300 10.104100 11.773600 13.888732 -10.359621 4.461265 -101.111019 14.330367 15.012719 34.596282 -43.205639 -9.157402 -0.351716 4.478896 10.004779 4.945864 19.519309 1.611000 -7.125000 0.000000 0.000000 -19.624100 44.251800 0.377600 -8.946912 12.279892 4.942241 91.154703 -11.598259 24.096372 -37.454622 43.615518 -9.954516 -1.080919 -2.791846 -9.030904 -17.095924 -3.517258 0.225900 7.125000 0.000000 0.000000 8.674600 -30.752400 3.050300 
-1.257464 17.050748 5.061014 1.811647 -6.044220 9.198082 10.755144 2.489783 -3.353889 -23.670478 -1.807677 -0.946955 -1.868249 0.775536 3.364664 -0.632224 8.119380 -5.755874 0.004200 -0.416300 -1.143900 -13.582296 -2.719250 -2.678826 23.907982 13.675232 -13.347844 -0.290969 -10.520924 28.230499 0.860225 -13.645758 -18.135783 -0.007100 0.543600 -1.493800 1.705152 -2.624532 2.022346 1.777217 -3.718680 -5.202319 -2.043711 -1.831575 -5.211209 8.530300 14.544753 -8.076435 1.089269 18.960414 11.974518 -6.491700 10.220900 11.627100 13.810317 -10.345456 4.509196 -100.847976 14.508416 15.412330 35.256408 -43.670394 -9.459481 -0.395622 4.434793 9.705252 4.782464 19.489790 1.572800 -7.125000 0.000000 0.000000 -19.763200 44.251200 0.380800 -8.822176 12.299206 5.026665 91.096527 -12.188244 24.570751 -38.604104 44.475484 -10.605181 -1.139649 -2.822629 -9.914138 -18.015027 -3.351877 0.186100 7.125000 0.000000 0.000000 8.013600 -30.582500 2.846500 
-1.274283 17.054306 5.036217 1.835645 -5.576931 9.449651 10.754552 2.461942 -3.312768 -23.587762 -2.427745 -1.283616 -1.878538 0.812625 3.359758 -0.648217 8.309165 -5.792350 0.004200 -0.416000 -1.143200 -13.562062 -2.722796 -2.710057 23.868878 13.203113 -13.785705 -0.302490 -10.573775 28.315373 0.844530 -13.518830 -18.085661 -0.006200 0.507400 -1.394200 1.702746 -2.630257 2.207749 1.768893 -3.712804 -5.204627 -2.090779 -1.827080 -5.329516 8.594185 14.794939 -8.006223 0.945392 19.309221 11.648515 -6.559200 10.356900 11.452800 13.734412 -10.358212 4.554284 -100.622473 14.647309 15.786146 35.856948 -44.078327 -9.740383 -0.407183 4.392770 9.306200 4.846729 19.405632 1.577700 -7.125000 0.000000 0.000000 -19.713000 44.209300 0.401000 -8.714576 12.324611 5.102979 91.036433 -12.697893 25.047711 -39.641950 45.228648 -11.219881 -1.216103 -2.852208 -10.664926 -19.051027 -3.132067 0.124700 7.125000 0.000000 0.000000 7.266700 -30.354500 2.617100 
-1.293151 17.056786 5.014330 1.814582 -5.069297 9.697769 10.764473 2.424497 -3.293471 -23.453802 -3.052100 -1.586222 -1.885188 0.856505 3.385809 -0.662829 8.555548 -6.192805 0.024700 -1.013900 -2.787200 -13.577624 -2.691881 -2.711715 23.943464 13.346436 -13.980051 -0.302780 -10.630011 28.377420 0.900152 -13.974303 -18.351437 -0.003900 0.404700 -1.112000 1.744831 -2.602813 2.358093 1.751016 -3.658551 -5.192411 -2.202032 -1.808048 -5.367789 8.728508 14.969454 -7.996897 0.758457 19.560064 11.327080 -6.685800 10.450700 11.308100 13.662635 -10.350726 4.589083 -100.314191 14.729411 16.211450 36.434441 -44.458046 -10.017891 -0.427587 4.358405 9.038842 4.811052 19.412239 1.570700 -7.125000 0.000000 0.000000 -19.763400 44.241400 0.385800 -8.604953 12.340867 5.179192 91.014382 -13.219059 25.478008 -40.826966 46.081973 -11.942094 -1.302758 -2.870892 -11.329767 -20.177542 -2.813071 0.025500 7.125000 0.000000 0.000000 6.448600 -30.028900 2.369400 
-1.311264 17.059805 4.992766 1.825254 -4.559814 9.934934 10.771294 2.388360 -3.259936 -23.354522 -3.714552 -1.939042 -1.891256 0.936267 3.488851 -0.673853 8.763431 -6.531652 0.046600 -1.393000 -3.830800 -13.575071 -2.679042 -2.732590 23.963943 13.169501 -14.259868 -0.307573 -10.673562 28.433907 0.924309 -14.164302 -18.466678 -0.002800 0.341700 -0.938900 1.759113 -2.594724 2.519080 1.738072 -3.632746 -5.186462 -2.277240 -1.797882 -5.432491 8.813731 15.153442 -7.971803 0.589788 19.825503 11.015831 -6.784900 10.547300 11.158000 13.590364 -10.350886 4.626496 -100.057875 14.843373 16.587306 37.022396 -44.844862 -10.304221 -0.443199 4.321304 8.755251 4.805133 19.382542 1.566300 -7.125000 0.000000 0.000000 -19.780800 44.243400 0.385100 -8.501021 12.358706 5.250870 90.974448 -13.732445 25.896444 -41.978537 46.872236 -12.657556 -1.386005 -2.882313 -11.955968 -21.256148 -2.447429 -0.100100 7.125000 0.000000 0.000000 5.665500 -29.654700 2.129700 
-1.329377 17.063147 4.971634 1.834372 -4.014103 10.175458 10.780123 2.348239 -3.223587 -23.247714 -4.423392 -2.315265 -1.896369 1.034258 3.631486 -0.682526 8.970859 -6.947513 0.080000 -1.824000 -5.019500 -13.574368 -2.665134 -2.754461 23.995397 13.009635 -14.509981 -0.309199 -10.707634 28.468355 0.956823 -14.410077 -18.599500 -0.001800 0.275300 -0.756500 1.779315 -2.591177 2.675201 1.725522 -3.613609 -5.181521 -2.350051 -1.791155 -5.494627 8.877742 15.315310 -7.961147 0.426593 20.062050 10.715523 -6.876300 10.627900 11.011200 13.520516 -10.352394 4.660082 -99.814417 14.945624 16.943631 37.585490 -45.209285 -10.583344 -0.453252 4.286178 8.494676 4.823094 19.351417 1.567000 -7.125000 0.000000 0.000000 -19.778500 44.243800 0.384900 -8.403408 12.374534 5.317273 90.932575 -14.226854 26.296827 -43.143037 47.641285 -13.394840 -1.466587 -2.888374 -12.493363 -22.310682 -2.067604 -0.243900 7.125000 0.000000 0.000000 4.900400 -29.261200 1.886100 
-1.347275 17.066705 4.951581 1.842058 -3.445312 10.415116 10.790892 2.304185 -3.184655 -23.138520 -5.169707 -2.723710 -1.899747 1.162523 3.843455 -0.685855 9.153364 -7.433483 0.122900 -2.260100 -6.225200 -13.574367 -2.651013 -2.778385 24.034241 12.850799 -14.740509 -0.310199 -10.737121 28.495318 0.993636 -14.683612 -18.743605 -0.001100 0.211300 -0.580600 1.806900 -2.590975 2.816620 1.712977 -3.599453 -5.176417 -2.423527 -1.787117 -5.542565 8.916081 15.448985 -7.974340 0.273392 20.261692 10.432411 -6.956900 10.688800 10.869900 13.452838 -10.353189 4.690375 -99.590089 15.039826 17.266073 38.131329 -45.558135 -10.858546 -0.459598 4.252002 8.254719 4.853364 19.315433 1.569900 -7.125000 0.000000 0.000000 -19.765000 44.239900 0.386600 -8.314144 12.386432 5.376344 90.885934 -14.689044 26.688047 -44.300378 48.378819 -14.141945 -1.539949 -2.896278 -12.945599 -23.339560 -1.754676 -0.377800 7.125000 0.000000 0.000000 4.155300 -28.926500 1.630900 
-1.364849 17.070586 4.932281 1.851563 -2.852525 10.658391 10.802980 2.256590 -3.141653 -23.024803 -5.952692 -3.159096 -1.902046 1.311227 4.099036 -0.683873 9.308057 -7.959653 0.172900 -2.678700 -7.385600 -13.574101 -2.637930 -2.805104 24.074838 12.668177 -14.962189 -0.309535 -10.758811 28.506738 1.032304 -14.963755 -18.883804 -0.000500 0.148800 -0.408800 1.832866 -2.594742 2.948073 1.701967 -3.592229 -5.173183 -2.485406 -1.785560 -5.587776 8.932859 15.558310 -8.004682 0.130916 20.427763 10.165654 -7.027600 10.732700 10.734200 13.388986 -10.355512 4.716677 -99.394448 15.124981 17.552865 38.640927 -45.879261 -11.118453 -0.458668 4.217860 8.047745 4.913732 19.252355 1.576700 -7.125000 0.000000 0.000000 -19.719200 44.212500 0.399500 -8.231283 12.396864 5.428877 90.826929 -15.127771 27.068013 -45.464478 49.085474 -14.899682 -1.602983 -2.901054 -13.324929 -24.283886 -1.476093 -0.508000 7.125000 0.000000 0.000000 3.471100 -28.623200 1.386400 
-1.381992 17.074576 4.913953 1.855274 -2.239936 10.905345 10.816535 2.205590 -3.096655 -22.897948 -6.760738 -3.611350 -1.903170 1.474004 4.384383 -0.678709 9.446567 -8.499431 0.225300 -3.055000 -8.431900 -13.575629 -2.624470 -2.832816 24.126420 12.492600 -15.165746 -0.306254 -10.773936 28.501980 1.075215 -15.269936 -19.032878 -0.000200 0.084700 -0.232700 1.865820 -2.600756 3.064888 1.692177 -3.589254 -5.170320 -2.541108 -1.785922 -5.623752 8.933571 15.643057 -8.050667 -0.001200 20.558233 9.912161 -7.090900 10.759200 10.600600 13.329217 -10.357937 4.739221 -99.223346 15.194852 17.805289 39.110342 -46.171030 -11.360492 -0.453415 4.184863 7.866225 4.989481 19.174047 1.585200 -7.125000 0.000000 0.000000 -19.656000 44.171200 0.419000 -8.154702 12.404249 5.474858 90.755723 -15.535185 27.430322 -46.652123 49.770894 -15.672898 -1.645092 -2.908781 -13.644952 -25.083685 -1.322666 -0.594200 7.125000 0.000000 0.000000 2.888400 -28.445200 1.165200 
-1.398596 17.078457 4.896702 1.852114 -1.618619 11.154972 10.831449 2.151857 -3.050729 -22.757885 -7.578927 -4.073326 -1.903271 1.646325 4.689403 -0.671372 9.581014 -9.058807 0.279700 -3.401500 -9.398700 -13.579502 -2.610247 -2.860468 24.188512 12.334498 -15.350635 -0.299941 -10.782785 28.480678 1.121772 -15.598522 -19.190623 0.000000 0.017900 -0.049200 1.904191 -2.605961 3.162620 1.683512 -3.586989 -5.167732 -2.589642 -1.786398 -5.646621 8.918396 15.702912 -8.119580 -0.118060 20.653419 9.678099 -7.142800 10.768600 10.474700 13.273881 -10.359645 4.757711 -99.079840 15.249233 18.019944 39.537286 -46.433792 -11.582955 -0.442959 4.153033 7.704471 5.088530 19.077410 1.596800 -7.125000 0.000000 0.000000 -19.568500 44.113200 0.446200 -8.085107 12.408731 5.513213 90.671718 -15.905474 27.775691 -47.853901 50.428049 -16.454239 -1.667973 -2.918035 -13.938719 -25.731117 -1.263845 -0.641200 7.125000 0.000000 0.000000 2.412300 -28.366100 0.977300 
